<?xml version="1.0" standalone="no"?>
<!DOCTYPE svg PUBLIC "-//W3C//DTD SVG 20010904//EN"
 "http://www.w3.org/TR/2001/REC-SVG-20010904/DTD/svg10.dtd">
<svg version="1.0" xmlns="http://www.w3.org/2000/svg"
 width="194.000000pt" height="194.000000pt" viewBox="0 0 194.000000 194.000000"
 preserveAspectRatio="xMidYMid meet">
<metadata>
Created by potrace 1.11, written by Peter Selinger 2001-2013
</metadata>
<g transform="translate(0.000000,194.000000) scale(0.100000,-0.100000)"
fill="#000000" stroke="none">
<path d="M0 970 l0 -520 115 0 115 0 0 136 0 135 52 55 53 56 35 -39 c45 -50
78 -87 200 -227 l101 -116 289 0 290 0 2 250 3 250 165 -120 c91 -66 172 -126
180 -133 8 -7 74 -54 145 -106 72 -52 145 -105 163 -119 l32 -24 0 521 0 521
-125 0 -125 0 0 -260 c0 -143 -3 -260 -6 -260 -3 0 -157 117 -342 260 l-337
259 -170 0 -170 0 -124 -117 c-68 -64 -165 -156 -215 -204 l-91 -86 -3 204 -2
204 -115 0 -115 0 0 -520z m1000 0 c0 -280 -2 -510 -4 -510 -2 0 -45 47 -96
105 -50 58 -97 111 -104 118 -6 6 -45 50 -86 97 -40 47 -86 99 -101 115 -15
17 -45 50 -67 75 l-40 44 43 41 c228 215 365 347 399 381 23 23 44 42 49 43 4
0 7 -228 7 -509z"/>
</g>
</svg>
